<svg xmlns="http://www.w3.org/2000/svg" viewBox="0 0 879.72 639.62"><defs><style>.cls-1{fill:#e5e1f1;}.cls-2,.cls-7,.cls-8,.cls-9{fill:none;}.cls-2,.cls-9{stroke:#fff;}.cls-2,.cls-5,.cls-7,.cls-8{stroke-linecap:round;stroke-width:2px;}.cls-2,.cls-5,.cls-7,.cls-8,.cls-9{stroke-miterlimit:10;}.cls-3{fill:#7149dc;}.cls-4{fill:#2c313d;}.cls-5,.cls-6{fill:#fff;}.cls-5{stroke:#2c313d;}.cls-7{stroke:#000;}.cls-8{stroke:#af8cff;}</style></defs><g id="Layer_2" data-name="Layer 2"><g id="OBJECTS"><path class="cls-1" d="M420.53,396.77,389,465.82c-72.07,13.23-167.68-13.37-167.68-13.37L180.11,465c-25,7-55,7.78-72.09,7.55-9.53-.13-23.71-2.41-31.7-13.34-2.81-3.85-6.1-7.81-8.18-11.86C56,423.62,44.29,383.43,46.3,353.93c2.93-43.41,39-32.36,39-32.36,41.72,10.1,64.75,69.8,68.38,79.89a35,35,0,0,1,.52,4.93s71.54-34.83,108.3-22.34,100.69,33.36,116.18,24.28C416.19,386.33,420.53,396.77,420.53,396.77Z"/><path class="cls-2" d="M101.3,437.09s16.34,11.46,40.31,5.7c19.51-4.68,79.24-21,95.13-25.36a10.93,10.93,0,0,1,7.47.61c15.54,7.16,79.07,34,127.91,19.76"/><path class="cls-2" d="M377.12,426.82s-9.65,18-8.39,40.27"/><path class="cls-3" d="M151.76,393.37c-13.42,15.83-45.15,43-92.53,55.5-13.74-26.71-34.91-73.82-32.65-107.1,3.31-49,44-36.49,44-36.49C117.6,316.66,147.67,382,151.76,393.37Z"/><path class="cls-4" d="M147.41,411.87a3,3,0,0,1-1-5.82L210,383l12-59.62a3,3,0,0,1,5.89,1.18l-12.71,62.94-66.8,24.18A2.78,2.78,0,0,1,147.41,411.87Z"/><path class="cls-5" d="M92.51,257.1c-7-4.9-20.3-3.31-26.91,5.56-4.08,5.46-6.51,14.77-4.4,21.27L51.07,305.45s17.09,6.6,29.63,3.13A16.86,16.86,0,0,1,81.38,298a6.55,6.55,0,0,0,5.06-.38c6-3.39,7.39-11.44,7.39-11.44s3.15,1.29,3.82.35-1.56-5.72-.3-9.41S99.47,262,92.51,257.1Z"/><path class="cls-4" d="M61.45,288.07a2.41,2.41,0,0,1-4.39-1.33,31.45,31.45,0,0,0-1.21-7.17c-3.18-11.47-4.66-30.69,15.88-32.83,23.49-2.44,28.62,11.47,25.46,16.13a2.38,2.38,0,0,1-3.1.72c-3.29-1.78-12.43-5.89-22.65-3.29a2.35,2.35,0,0,0-1.73,2C69.2,266.78,67.27,279.67,61.45,288.07Z"/><path class="cls-4" d="M60.41,289A24.3,24.3,0,0,0,72.9,276.45l3.68.57s4.9-2.38,4.48-13.46c0,0,16.36,4.94,22-3.87s-15-10.32-25.69-8.86S57.16,279.8,60.41,289Z"/><path class="cls-6" d="M77.52,277.92s.55-6.62-4.63-6.06-4.35,11-.41,11.13S77.52,277.92,77.52,277.92Z"/><path class="cls-5" d="M75.65,278.56s.85-4.12-3.3-3.65"/><path class="cls-4" d="M91,279.11c0,.92.46,1.64.91,1.62s.8-.79.75-1.71-.46-1.64-.92-1.61S91,278.19,91,279.11Z"/><path class="cls-4" d="M89.59,275.75a9.13,9.13,0,0,1,3.28-.34c1.86.13,1.51-2.11-1-1.69S88.72,275.85,89.59,275.75Z"/><path class="cls-4" d="M81.85,297.14s-7.67-2.42-8.2-1.37,5.4,9.47,6.66,8.12C80.43,303.76,80.1,299.2,81.85,297.14Z"/><path class="cls-5" d="M89,291.13a2.56,2.56,0,0,0,2,1.72"/><path class="cls-5" d="M199.85,355.57S190.19,349.29,181,350c3.94-2.45,9.22-5.8,9.26-6.79.06-1.38-4.65-1.21-10.94.69-2.95.9-6.57,4.07-9.59,7.18a24.27,24.27,0,0,1-7.1,5.05c-3.5,1.66-6.64,3.19-7.08,3.54-24,10.48-45.46,22.25-45.46,22.25-21.24-30.2-34.9-40-34.9-40L41.47,357S66.8,425,95.11,432.43s75-47.75,75-47.75,11.16-13.17,18.4-14.81,11.76-4,9.37-5a47.12,47.12,0,0,0-6.47-1.9s7.57.5,6.73-1.56c-.73-1.8-5.32-3.42-6.49-3.81,0,0,0-.07,0-.07C193.36,357.67,202.5,358.14,199.85,355.57Z"/><path class="cls-5" d="M50.16,317.75S17.35,321.37,45,381.86c-.21.51,31.15-9.13,56.45-25.2C101.48,356.66,75.18,314,50.16,317.75Z"/><path class="cls-5" d="M101.23,388s5.78-4.66,8.82-6"/><path class="cls-5" d="M191.62,357.56a18.24,18.24,0,0,0-16.29,1"/><path class="cls-5" d="M191.37,363s-7-1-13,1.87"/><path class="cls-5" d="M181,350s-3.68.37-8.21,4.84"/><path class="cls-4" d="M54.15,385.64s23.45-10.73,40.54-23.85l-.51-.21S60,378.53,51.51,380.05Z"/><path class="cls-4" d="M151.5,360.67l20.33,22.88a1.61,1.61,0,0,0,2.39,0l2.77-3a1.61,1.61,0,0,0,0-2.2l-19.94-21.58a1.61,1.61,0,0,0-1.94-.33L152,358.17A1.62,1.62,0,0,0,151.5,360.67Z"/><path class="cls-3" d="M154.24,368c0,3.22,3.4,5.83,7.58,5.83s7.59-2.61,7.59-5.83-3.4-5.82-7.59-5.82S154.24,364.77,154.24,368Z"/><path class="cls-7" d="M98.35,266.36s7-3.37,5.28-9.62"/><path class="cls-1" d="M513.49.82h179.4a65.69,65.69,0,0,1,65.69,65.69V284.26a0,0,0,0,1,0,0H513.49a0,0,0,0,1,0,0V.82A0,0,0,0,1,513.49.82Z"/><rect class="cls-5" x="573.94" y="406.13" width="129.25" height="232.15"/><rect class="cls-7" x="552.28" y="405.3" width="129.25" height="232.9"/><path class="cls-4" d="M716.37,425.38H564.53a23.22,23.22,0,0,1-23.21-23.22h0A23.21,23.21,0,0,1,564.53,379H716.37a23.21,23.21,0,0,1,23.21,23.21h0A23.22,23.22,0,0,1,716.37,425.38Z"/><path class="cls-3" d="M718.76,574.89H629.2s-.07-13.79,1.18-34c2.35-37.78,9.36-97.94,30.19-132.1,0,0-89.56,7.21-83.67-59.48,1.42-16.07,7.36-25.68,15.59-31,25.92-16.84,74.38,8.76,74.38,8.76s69.41-.74,91.18,22.56c34.31,36.76-24.9,127.84-59.57,169,0,0-5.78,7.65-5.64,17.28a3,3,0,0,1,0,.42c.2,6.45,3.09,13.72,12.16,20.22C727.92,572.91,718.76,574.89,718.76,574.89Z"/><path class="cls-3" d="M689,574.89H604.65a6,6,0,0,1-6-5.32A251.82,251.82,0,0,1,597,544c0-.89-.05-1.8-.09-2.71-1.25-30.78-13.59-77.72,10.78-122.68a6,6,0,0,0-5.11-8.93c-23.39-.47-60.06-7.81-55.41-60.31,3-33.71,24.66-36.51,45.36-31,17.07,4.46,33.48,14.6,38.24,17.67a6,6,0,0,0,3,1c8.58.35,30.7,3.69,51.07,23.46,22.88,22.23.65,117.69-34,158.87,0,0,9.81,7.78,12.19,18,.13.53.22,1.07.31,1.62.82,5.76,4,12,11.94,17.66C698.15,572.91,689,574.89,689,574.89Z"/><path class="cls-5" d="M767.11,321.17s-14-25.26-48.33-30.71c-28.87-4.58-30.23-32.73-37-46-2.5-10.5-11.4-26.88-17.5-31.51-17.21-13-54.41-14.06-68.23-15.69-38.69-4.58-63.43-5.49-89.09,54.22-4.39,10.22-2.86,45-.87,54.78,7.69,38,33.4,19.94,33.4,19.94s25.13,3.27,63.49,4c37.41.71,62.16,4,91.06-7.44,0,0-37.67,14.18-41.4,0Z"/><path class="cls-5" d="M636.63,316s11.34-4.54,10.67,3.87"/><path class="cls-2" d="M636.79,257.5s6.48,10.85,3.51,22.7-10.06,32.93-7.82,45.27"/><path class="cls-5" d="M612.87,304.21s-54-24.84-78.06-13.27"/><path class="cls-5" d="M566.39,263.29s-8,6.56-12.4,23.69"/><path class="cls-5" d="M601.23,324.31s.9-16.21,12.16-20.26c0,0,17.91.16,31.9-4.62S666.8,322,666.8,322s-2.53,2.76-8.54-3.24a1.66,1.66,0,0,0-2.77,1.59l.73,3"/><path class="cls-5" d="M636.77,306.86a68.16,68.16,0,0,0,9.33-.71c3.47-.67,10,10.32,10,10.32"/><path class="cls-7" d="M650.8,332.79c24.19,4,49.9,13.54,59.42,25.92,25,32.54-12.59,114.36-39.1,160.42,0,0-5.83,7.7-5.65,17.38"/><line class="cls-7" x1="702.55" y1="575.39" x2="552.43" y2="575.39"/><path class="cls-5" d="M623.07,196.06a42.46,42.46,0,0,0-3.35,12.79c-.05,1.56-3,6.85-12,3.09A18.66,18.66,0,0,1,596,197.26c6.83-10.41,10.26-26.5,10.26-26.5"/><path class="cls-7" d="M580.56,334.76s-8.69,24.82,23,36c20.07,7.09,37.1,12.8,46.88,16a7.58,7.58,0,0,1,4.25,10.89c-12.6,22.62-41.2,65.52-32,145.58"/><path class="cls-4" d="M718.76,575.78H604.65a6.1,6.1,0,0,1-6-5.44c-.65-5.37-1.49-14.46-1.71-26.2,0-.91-.05-1.84-.09-2.77,12.52.47,23.86.25,33.51-.34A274,274,0,0,0,663,537.32c1.42-.27,2.16-.43,2.16-.43,13.23,2,22.25.63,27.66-1a3.17,3.17,0,0,1,0,.43c.2,6.6,5.27,13.4,14.34,20C730.11,573.11,718.76,575.78,718.76,575.78Z"/><path class="cls-2" d="M665.47,536.51c.12,6.53,3,14,12.19,20.54,22.88,16.35,13.73,18.31,13.73,18.31"/><path class="cls-2" d="M691.16,346.19s-13.43,36.57,25,49.63"/><path class="cls-2" d="M745.27,343.21s-13.81,27.61,20.15,49.25"/><path class="cls-3" d="M645.82,162.41s7.95-15.23-3.69-26.27c-4.12-3.92-13.79-6.35-23.24-5.49-17.22,1.58-33.71,14.13-14.57,48.71Z"/><path class="cls-6" d="M638.49,157.27c6.11-.53,8.33,1.84,6,9.12-1.53,4.7-1.54,6-3.21,13.45-3.57,15.9-16.64,20.8-26.88,9.87-3-3.14-8.5,4.37-9.82,1.51-3.33-7.22,1.88-24.79,8-36.53,6.23-12,21.23-11.87,21.23-11.87S629.21,158.08,638.49,157.27Z"/><path class="cls-4" d="M640.67,171.12c-.54,1.11-1.38,1.77-1.88,1.48s-.48-1.43.06-2.54,1.38-1.77,1.88-1.48S641.2,170,640.67,171.12Z"/><path class="cls-4" d="M627.17,166.26c-.27,1.21-.95,2.11-1.53,2s-.81-1.14-.54-2.35.95-2.11,1.53-2S627.44,165.06,627.17,166.26Z"/><path class="cls-4" d="M623.28,195.35a22.65,22.65,0,0,1-10.84-9c-4.56-7-2.58,13.56,7.64,18.79A27.86,27.86,0,0,1,623.28,195.35Z"/><path class="cls-4" d="M639.89,164.09a48,48,0,0,0,4.67,3.55C647.29,169.41,644.19,159.94,639.89,164.09Z"/><path class="cls-4" d="M630.91,162s-7,.1-7.6-.22C621.65,160.87,628.58,155.87,630.91,162Z"/><path class="cls-6" d="M611.73,165.2s-.33-7.5-4.22-8.22c-7.86-1.47-7.5,12.68.64,14.54S611.73,165.2,611.73,165.2Z"/><path class="cls-7" d="M608.53,165.34s.36-3.4-2.28-4.53"/><path class="cls-3" d="M610.31,162.3s3.33,4.67,6.39-4c1.65-4.66,12.52-3.31,15.92-9.3C644.7,127.76,607.13,140.47,610.31,162.3Z"/><path class="cls-7" d="M645.19,162.44c-2.86,27.39-14.35,37.61-24,32.39"/><path class="cls-7" d="M623.39,181.58s-2.24,3,1.93,5.78"/><path class="cls-8" d="M619,144.34s17.84-13.88,28.33-6.56c9.07,6.33-1.24,22.76-1.24,22.76"/><path class="cls-8" d="M643,140.14s-.24-8.74-20.77-12.45-30.18,17.48-23.42,31.78"/><path class="cls-7" d="M618.27,164.93c-.57,2.7,2.21,5.57,6.21,6.4s7.68-.69,8.25-3.39-2.22-5.57-6.21-6.41S618.83,162.22,618.27,164.93Z"/><path class="cls-7" d="M635.08,169.93c-.56,2.7,2.22,5.57,6.21,6.4s7.69-.68,8.25-3.39-2.22-5.57-6.21-6.4S635.65,167.22,635.08,169.93Z"/><path class="cls-7" d="M601.65,162.3s-.8-6.39,5.73-5.59,10.89,8.22,10.89,8.22"/><line class="cls-7" x1="632.73" y1="167.94" x2="635.41" y2="168.71"/><path class="cls-7" d="M651.77,245.54a71.93,71.93,0,0,1,3.38,32.28c-2.3,17.89-1.85,21.2-1.85,21.2"/><path class="cls-7" d="M659.34,304.12s2.62-3,6.44.6,3,10.87,3,10.87"/><path class="cls-2" d="M597.74,556.06s23.9-2.7,26.39,20.37"/><path class="cls-2" d="M677.66,557.05c6.67-3.59,13.5-13.37,6.72-12.43s-7.72,11.55-7.72,11.55"/><path class="cls-2" d="M695.12,560.46s-11.92-4.66-16.82-3.62"/><path class="cls-4" d="M655,259c-.26-1.11,21.1,25.51,19.21,57.94l-4.26.95s-.16-12-5.13-14.28-6.1,1.77-6.1,1.77l-5.62-5S658,272,655,259Z"/><path class="cls-4" d="M690.59,321.6H828.8a4.38,4.38,0,0,0,4.35-3.84l10.67-85.34a4.39,4.39,0,0,0-4.36-4.93H701.26a4.39,4.39,0,0,0-4.36,3.84l-10.67,85.34A4.39,4.39,0,0,0,690.59,321.6Z"/><path class="cls-4" d="M711.59,316.05H616.25a2.82,2.82,0,0,0-2.82,2.82h0a2.83,2.83,0,0,0,2.82,2.83h95.34a2.83,2.83,0,0,0,2.82-2.83h0A2.82,2.82,0,0,0,711.59,316.05Z"/><path class="cls-9" d="M685.3,300.58s44.06,5.66,62.24-29.69,35.46-7.5,56.57-4.55c21.43,3,40.7-24.83,40.7-24.83"/><path class="cls-5" d="M483.81,90a9.07,9.07,0,1,0,9.07-9.06A9.07,9.07,0,0,0,483.81,90Z"/><line class="cls-5" x1="493.29" y1="81.03" x2="493.29" y2="1"/><rect class="cls-5" x="484.77" y="28.02" width="16.74" height="46.71" rx="4.17"/><path class="cls-4" d="M593.92,90H395.13c6.52-9.19,48.52-21.34,99.38-21.34S587.4,80.81,593.92,90Z"/><rect class="cls-1" x="50.66" y="516.98" width="58.81" height="21.14"/><rect class="cls-1" x="136.31" y="549.34" width="58.81" height="21.14"/><line class="cls-5" x1="51.49" y1="543.37" x2="195.42" y2="543.37"/><line class="cls-5" x1="136.87" y1="576.33" x2="275.93" y2="576.33"/><path class="cls-1" d="M831.74,520.35s6.47-7.76,21.57-3.88-27.17,49.17-36.66,54.78S819.23,535,831.74,520.35Z"/><path class="cls-1" d="M853.88,501.54c-40.28,32.22-37.6,73.56-37.6,73.56a46.06,46.06,0,0,1-11.18,7.46c-1.13-17-.13-45.56,14.23-72.65,6.49-12.24,15.89-31.48,23.29-46.91-1.42,5.74,0,.12,0,.12C860.36,454,894.16,469.33,853.88,501.54Z"/><path class="cls-5" d="M846.1,441.75a85.94,85.94,0,0,1-8.66,32c-6.26,12.9-13.06,26.65-18.11,36.17C805,537,804,565.6,805.1,582.56a17,17,0,0,1-6.81,1.61c-4.62,0-7.53-2.68-9.34-5.61a21.81,21.81,0,0,1-2.76-7.54c-22.58-61.53-7-152.7,34.93-159.68C843.11,407.68,847.19,424.73,846.1,441.75Z"/><path class="cls-7" d="M843,419.42s-17.51,15.79-11.49,21.51c4.16,3.94,14.64-5.66,14.64-5.66"/><path class="cls-7" d="M775.84,514.17s5.8,7.21,8.79,3.66c3.43-4.07-8-23.57-8-23.57"/><path class="cls-7" d="M819.8,430.79s-36.94,69.61-24.15,141.6"/><path class="cls-5" d="M786.19,571h34.42a7,7,0,0,1,7,7v30.1a0,0,0,0,1,0,0H779.17a0,0,0,0,1,0,0V578A7,7,0,0,1,786.19,571Z"/><path class="cls-7" d="M841.13,514.3s-10.43,6.82-15.45,17.8"/><line class="cls-5" x1="878.72" y1="608.26" x2="1" y2="608.26"/><line class="cls-5" x1="1.83" y1="161.49" x2="490.15" y2="161.49"/><line class="cls-5" x1="25.55" y1="606.46" x2="25.55" y2="3.7"/><line class="cls-5" x1="185.72" y1="330.68" x2="185.72" y2="4.03"/><line class="cls-5" x1="346.59" y1="210.84" x2="346.59" y2="3.57"/><line class="cls-5" x1="385.39" y1="472.25" x2="27.79" y2="472.25"/><path class="cls-8" d="M385.13,143.16s-2.49-17.12-20.34-9.11"/><path class="cls-3" d="M387.8,151.57s-1.41-17.09-17.4-18.44c-20.2-1.71-22,22.41-14.8,36.55,0,0,9.37,4.39,14.42-6.3,3.24-6.86-.28-13.65,2.7-15.23,9.45-5,9.42,9.94,9.42,9.94Z"/><path class="cls-5" d="M377.78,149.55a6.85,6.85,0,1,1,6.83,6.33A6.59,6.59,0,0,1,377.78,149.55Z"/><rect class="cls-7" x="355.47" y="406.13" width="129.25" height="232.15"/><rect class="cls-7" x="333.81" y="405.3" width="129.25" height="232.96"/><path class="cls-4" d="M497.89,425.38H346.05a23.22,23.22,0,0,1-23.21-23.22h0A23.21,23.21,0,0,1,346.05,379H497.89a23.22,23.22,0,0,1,23.22,23.21h0A23.23,23.23,0,0,1,497.89,425.38Z"/><path class="cls-5" d="M500.28,574.89H410.71a203.09,203.09,0,0,1-2.26-24.17c-1.34-31.71,1.69-89.52,33.64-141.91,0,0-89.57,7.21-83.67-59.48,1.42-16.07,7.36-25.68,15.58-31,25.93-16.84,74.38,8.76,74.38,8.76s53.37,8.82,75.13,32.13C557.82,396,514.66,477.48,480,518.65c0,0-6,7.88-5.63,17.7.2,6.45,3.09,13.72,12.17,20.22C509.44,572.91,500.28,574.89,500.28,574.89Z"/><path class="cls-5" d="M473.61,574.6l-87.44.29a6,6,0,0,1-6-5.32A254.11,254.11,0,0,1,378.47,544c-.55-30.69,3.49-79.71,28.6-126A6,6,0,0,0,402,409c-23.39-.46-77.95-7.18-73.31-59.68,3-33.71,32.84-38.78,53.54-33.29,17.08,4.47,88.25,21.12,108.37,41.14,31.18,31-7.51,113.27-37.65,160.19,0,0-7.5,10.46-5.88,21.47.82,5.76,1.87,12.08,9.77,17.73C479.67,572.91,473.61,574.6,473.61,574.6Z"/><path class="cls-5" d="M548.63,322.06s-14-23-48.32-28c-28.88-4.18-52.63-42.55-59.45-54.63-3.35-6.85-7.71-12.67-13.81-16.88-17.21-11.89-34.32-10-48.14-11.54-38.69-4.18-57.94.9-83.6,55.35-4.39,9.31-9.73,33.19-7.75,42.12,7.7,34.63,33.4,18.19,33.4,18.19s25.13,3,63.49,3.64c37.41.64,62.17,3.62,91.07-6.79,0,0-37.67,12.93-41.41,0Z"/><path class="cls-3" d="M417.63,172.14s6.1-14.8-6.74-23.28c-4.55-3-14.42-4-23.69-2-16.89,3.65-31.77,17.12-8.73,45.92Z"/><path class="cls-5" d="M418.15,316s11.35-4.54,10.68,3.87"/><path class="cls-2" d="M418.31,257.5s6.48,10.85,3.52,22.7-10.06,32.93-7.82,45.27"/><path class="cls-5" d="M394.4,304.21s-54-24.84-78.07-13.27"/><path class="cls-5" d="M347.91,263.29s-8,6.56-12.4,23.69"/><path class="cls-6" d="M405.8,169.47c6-1.26,12.44-.44,10.95,6.45-1,4.44-.82,5.62-1.61,12.57-1.67,14.84-14.05,20.95-25.49,12.39-11.63-8.7-12.45-15.53-6-31.43,4.77-11.67,10.08-4.92,10.08-4.92S396.68,171.4,405.8,169.47Z"/><path class="cls-4" d="M413.55,180.68c-.41,1.07-1.16,1.78-1.69,1.58s-.64-1.23-.24-2.3,1.16-1.79,1.69-1.59S414,179.6,413.55,180.68Z"/><path class="cls-4" d="M399.59,178c-.13,1.13-.7,2-1.28,2s-.94-.93-.81-2.06.7-2,1.27-2S399.72,176.9,399.59,178Z"/><path class="cls-6" d="M399.15,204.83a18.21,18.21,0,0,0-1.72,13s-.78,11.85-8.16,21.73a5.13,5.13,0,0,1-8.55-.62c-3.85-6.82-9.21-18.41-8.1-28.53,0,0,5.73-14.41,6.84-24C379.46,186.46,398.14,203.15,399.15,204.83Z"/><path class="cls-4" d="M399.15,204.83a22.58,22.58,0,0,1-11.81-6.75c-5.34-5.74-.89,10.31,9.85,13.73C397.19,211.81,397.08,209.15,399.15,204.83Z"/><path class="cls-4" d="M411.3,173.92a10.1,10.1,0,0,1,5,2.61C418.15,178.54,415.08,169.61,411.3,173.92Z"/><path class="cls-4" d="M402.43,173.46s-6-.21-7.56.78S399.4,168.18,402.43,173.46Z"/><path class="cls-6" d="M384.15,179.05s-2.06-5-5.93-5.66-5.17,11.2,3.13,11.84S384.15,179.05,384.15,179.05Z"/><path class="cls-7" d="M381,179.59s-.05-3.11-2.8-3.8"/><path class="cls-3" d="M381.51,175.21s9-1.47,13.77-14.18S375.79,155.88,381.51,175.21Z"/><path class="cls-7" d="M399,205.5a36.2,36.2,0,0,0-1.82,12c.13,1.42-2.2,6.59-11.55,4.35-11.27-2.7-13.3-11.77-13.3-11.77,5.55-10.3,7.06-25.29,7.06-25.29"/><path class="cls-7" d="M417,172.24c.38,25.14-9.81,35.87-19.94,32.38"/><path class="cls-7" d="M397.64,192.36s-1.87,3,2.59,5"/><path class="cls-5" d="M382.76,324.31s.9-16.21,12.15-20.26c0,0,17.92.16,31.91-4.62S448.32,322,448.32,322s-2.53,2.76-8.53-3.24a1.67,1.67,0,0,0-2.78,1.59l.73,3"/><path class="cls-5" d="M418.82,311.75s5.34-4.94,8.81-5.6,8.56,8.4,8.56,8.4"/><path class="cls-4" d="M474.15,321.61H585.62a3.55,3.55,0,0,0,3.52-3.1l8.6-68.83a3.55,3.55,0,0,0-3.52-4H482.76a3.54,3.54,0,0,0-3.52,3.11l-8.6,68.82A3.53,3.53,0,0,0,474.15,321.61Z"/><path class="cls-9" d="M531.13,289.23c1.45,2.06,5.18,1.94,8.33-.28s4.53-5.68,3.08-7.74-5.18-1.94-8.33.27S529.68,287.16,531.13,289.23Z"/><rect class="cls-4" x="404.43" y="316.55" width="91.97" height="5.14" rx="2.57"/><path class="cls-5" d="M441,305.53s20.26,7.76,21.12,11"/><path class="cls-5" d="M424.28,242.73s4.18,15.58,8,23.62c6.26,13.2-1.39,31.26-1.39,31.26"/><path class="cls-8" d="M381.51,175.21s12.4,6,12.53-12.79"/><ellipse class="cls-3" cx="370.47" cy="248.09" rx="5.21" ry="6.03" transform="translate(-29.62 444.88) rotate(-60)"/><path class="cls-6" d="M378.47,544A70.12,70.12,0,0,1,405,549.54a24.32,24.32,0,0,0,3.49,1.18c16.65,4.53,31.68-7.5,36.4-11.81,1-.91,1.53-1.47,1.53-1.47s17.23,12.63,27.73-.82a1.3,1.3,0,0,1,.26-.27c.2,6.45,3.09,13.72,12.17,20.22,22.9,16.34,13.74,18.32,13.74,18.32H386.17a6,6,0,0,1-6-5.32A254.11,254.11,0,0,1,378.47,544"/><path class="cls-5" d="M378.47,544.41A70.12,70.12,0,0,1,405,550a24.32,24.32,0,0,0,3.49,1.18c16.65,4.53,31.68-7.5,36.4-11.81,1-.91,1.53-1.47,1.53-1.47s17.23,12.63,27.73-.82a1.3,1.3,0,0,1,.26-.27c.2,6.45,3.09,13.72,12.17,20.21,22.9,16.35,13.74,18.33,13.74,18.33H386.17a6,6,0,0,1-6-5.32,254.34,254.34,0,0,1-1.72-25.61"/><line class="cls-7" x1="484.07" y1="575.39" x2="333.95" y2="575.39"/><path class="cls-4" d="M435.72,546.59s10.25,20.72,26.41,12.75c0,0-13.8-9.61-15-23.05C447.17,536.29,438.85,533.18,435.72,546.59Z"/><path class="cls-4" d="M466.19,543.25s3.8,20.22,19.21,13.18c0,0-8.64-6.21-10.34-21C475.06,535.45,465.86,531.74,466.19,543.25Z"/><path class="cls-8" d="M365.27,347.21c0,2.07-2.71,3.74-6.06,3.74s-6-1.67-6-3.74,2.71-3.74,6-3.74S365.27,345.15,365.27,347.21Z"/><ellipse class="cls-8" cx="474.66" cy="385.96" rx="3.74" ry="6.05" transform="translate(-122.8 254.4) rotate(-26.7)"/><path class="cls-8" d="M520.35,379.69c-1.85.93-4.56-.74-6.06-3.72s-1.23-6.16.62-7.09,4.55.74,6.06,3.73S522.19,378.77,520.35,379.69Z"/><path class="cls-8" d="M413.12,519.25c-1.84.93-4.56-.74-6.06-3.73s-1.22-6.16.62-7.08,4.56.74,6.06,3.72S415,518.32,413.12,519.25Z"/><ellipse class="cls-8" cx="418.67" cy="370" rx="6.05" ry="3.74" transform="translate(-139.58 346.73) rotate(-39.08)"/><path class="cls-8" d="M484.1,495.9c1.3,1.6.26,4.61-2.34,6.72s-5.75,2.51-7.05.91-.26-4.61,2.34-6.72S482.8,494.3,484.1,495.9Z"/><path class="cls-8" d="M512.73,441.52c1.3,1.61.25,4.61-2.34,6.72s-5.75,2.52-7.06.92-.25-4.61,2.35-6.72S511.43,439.92,512.73,441.52Z"/><path class="cls-8" d="M448.56,443.67c1.31,1.6.26,4.61-2.34,6.72s-5.75,2.51-7.05.91-.25-4.61,2.34-6.72S447.26,442.07,448.56,443.67Z"/><line class="cls-5" x1="380.46" y1="567.56" x2="498.64" y2="567.56"/><path class="cls-4" d="M428.54,255.94s11.33,19.25,12.62,32.19a75,75,0,0,1,0,17s-6.89-7.14-11.43-6.68C429.73,298.48,437.39,282.85,428.54,255.94Z"/><path class="cls-4" d="M345.61,266.83s-5.85,7.85-1.1,21.55l-9.12-.2S337.11,274.08,345.61,266.83Z"/><path class="cls-7" d="M462.13,559.34s15,6,16.42,16.23"/><line class="cls-7" x1="294.32" y1="333.26" x2="294.32" y2="638.62"/><path class="cls-1" d="M869.43,332.69H250.61a5.64,5.64,0,0,1-5.64-5.63h0a5.64,5.64,0,0,1,5.64-5.64H869.43a5.63,5.63,0,0,1,5.64,5.64h0A5.63,5.63,0,0,1,869.43,332.69Z"/></g></g></svg>