<svg xmlns="http://www.w3.org/2000/svg" viewBox="0 0 500.5 462.13"><defs><style>.cls-1{fill:#e5e1f1;}.cls-2,.cls-5{fill:#fff;}.cls-2,.cls-4{stroke:#252d3b;}.cls-2,.cls-4,.cls-6,.cls-8{stroke-linecap:round;stroke-miterlimit:10;stroke-width:0.5px;}.cls-3{fill:#252d3b;}.cls-4,.cls-6,.cls-8{fill:none;}.cls-6{stroke:#fff;}.cls-7{fill:#7149dc;}.cls-8{stroke:#af8cff;}</style></defs><g id="Layer_2" data-name="Layer 2"><g id="OBJECTS"><path class="cls-1" d="M207.11,77.51s-21.4,0-29.24,28.19S128.8,136.51,134,167.83s78.31,57.95,118-13.05S233.21,67.07,207.11,77.51Z"/><path class="cls-1" d="M289,175.82c1.56,0,37.58-30.8,62.12-8.88S296.33,250,265,231.68,289,175.82,289,175.82Z"/><rect class="cls-2" x="167.09" y="97.14" width="165.45" height="160.12"/><rect class="cls-3" x="154.38" y="91.16" width="191.73" height="10.02"/><rect class="cls-1" x="190.6" y="151.95" width="20.53" height="20.85"/><rect class="cls-1" x="216.58" y="151.95" width="20.53" height="20.85"/><rect class="cls-2" x="199.8" y="147.98" width="2.99" height="6.19"/><rect class="cls-2" x="225.84" y="147.98" width="2.99" height="6.19"/><circle class="cls-1" cx="294.3" cy="202.67" r="10"/><polyline class="cls-4" points="286.08 188.3 293.04 201.97 305.26 188.78"/><rect class="cls-4" x="265.83" y="130.06" width="28.01" height="39.74"/><line class="cls-4" x1="271.52" y1="136.67" x2="288.33" y2="136.67"/><line class="cls-4" x1="271.52" y1="142.65" x2="288.33" y2="142.65"/><line class="cls-4" x1="271.52" y1="148.63" x2="288.33" y2="148.63"/><rect class="cls-4" x="191.32" y="196.72" width="46.47" height="32.43"/><line class="cls-4" x1="197.99" y1="203.81" x2="230.98" y2="203.81"/><line class="cls-4" x1="197.99" y1="212.1" x2="230.98" y2="212.1"/><line class="cls-4" x1="197.99" y1="220.4" x2="230.98" y2="220.4"/><line class="cls-4" x1="0.25" y1="412.4" x2="500.25" y2="412.4"/><path class="cls-2" d="M316.59,275.93s2.29.15,2.92,1.42c.54,1.07-2.84,1.21-2.84,1.21"/><path class="cls-2" d="M304.75,288.9s1.43.1,0-5-1.23-13.71,2.05-13.91,3.9,2.1,3.9,2.1,3.13-.53,3.48,2.14a2.51,2.51,0,0,1,2,1.13c.83,1.18-.36,2.79-.18,6.94s2,8.32-3.2,11.76.17.42.17.42Z"/><path class="cls-5" d="M296.71,267.54c.24.08,26,15.85,26,15.85"/><path class="cls-3" d="M322.72,284.56c.39,0,2.48.54,2.48.54a13.72,13.72,0,0,0-1.87-2.71c-25.9-15.85-26.09-15.91-26.28-16a1.16,1.16,0,0,0-1.45.77,1.18,1.18,0,0,0,.6,1.4c.9.5,15.94,9.68,25.91,15.78A1.14,1.14,0,0,0,322.72,284.56Z"/><path class="cls-3" d="M288.58,285.51H236.83A16.85,16.85,0,0,0,220,302.37V389a20.76,20.76,0,0,0,20.76,20.76h68.62s-4.35-73.13-3.93-107.18A16.85,16.85,0,0,0,288.58,285.51Z"/><path class="cls-2" d="M309.94,328.3c4.29-2.8,8.42-22.29,6.44-37.15,0,0-4.29-3.8-11.89-3.14,0,0-2.86,4.79-5.77,10.88-2-7.78-5.59-14.62-12.66-17.94-3.75-1.76-11.07.09-17.28-.58-17.4-1.88-30.27,2.06-38.84,28.71-1.42,4.41-5.07,11.53-4.44,15.36,3.43,21.08,28.78,9.87,28.78,9.87s-16.6,42.43,57.46,15.76c0,0-7.47-7.49-9.5-20.85A9.73,9.73,0,0,0,309.94,328.3Z"/><path class="cls-6" d="M286.49,301.28s2.92,4.88,1.59,10.21-4.53,14.81-3.52,20.36"/><path class="cls-2" d="M290.23,319s-4.5-4.47-7.62-7.92-20.12,1.79-20.12,1.79-1.69,6.13,2.76,8.89,18.41-.37,18.58-1.91-3.17-4.71-3.17-4.71,7,5.31,8.74,5.48S290.23,319,290.23,319Z"/><path class="cls-2" d="M277.4,317a13.48,13.48,0,0,1,2.54,2.12"/><path class="cls-2" d="M274,317.78a11.11,11.11,0,0,1,1.49,1.38"/><path class="cls-2" d="M262.49,312.82s-8.45.27-19.29,5.48"/><path class="cls-2" d="M251.49,299.76s-.65,11.06-2.39,15.83"/><path class="cls-2" d="M299.24,324.64a52.65,52.65,0,0,0-31.22-5l-.78,8.9,38,.83Z"/><path class="cls-2" d="M301.7,325.66a52.65,52.65,0,0,1,31.21-5l.78,8.89-38,.83Z"/><path class="cls-7" d="M285.72,273.93c-17.68,8.87-28.62,2.59-35.8-.69a16.08,16.08,0,0,1,1.24-10.4c1.43-2.68,2.67-3.84,3.6-4.31a3,3,0,0,0,1.65-2.66c0-2.89,1.21-4.47,3.91-6.44,5.18-3.77,8.69.61,8.69.61s.42-2,4.3-1.62c4.58.46,5.73,2.64,8.15,4,4.08,2.28,4.08,7.93,2.07,13.68C282.43,269.24,284,273,285.72,273.93Z"/><path class="cls-5" d="M272.9,258.43c2.33-1.48,5.18-2.15,5.63,1a47.1,47.1,0,0,0,1.3,5.54c1.64,6.52-2.62,11.05-8.79,9.24s-7.69-4.59-7.46-12.3c.17-5.67,3.48-3.66,3.48-3.66S269.37,260.67,272.9,258.43Z"/><path class="cls-3" d="M277.62,262.39c0,.51-.21.93-.47.93s-.46-.42-.46-.93.21-.93.46-.93S277.62,261.87,277.62,262.39Z"/><path class="cls-3" d="M271.63,263c.13.5,0,1-.22,1.06s-.54-.24-.66-.74,0-1,.22-1.05S271.51,262.51,271.63,263Z"/><path class="cls-4" d="M276.51,268.77a7.94,7.94,0,0,1-4.08.48s1.2,2.55,2.54,2.31S276.51,268.77,276.51,268.77Z"/><path class="cls-5" d="M275.67,274.37a8.18,8.18,0,0,0,1.32,5.75,20.53,20.53,0,0,1,0,10.44,2.3,2.3,0,0,1-3.7,1.08c-2.69-2.27-6.78-6.31-7.9-10.74,0,0,.2-8.07-.84-12.27C264.53,268.63,275,273.82,275.67,274.37Z"/><path class="cls-3" d="M275.67,274.37a10.15,10.15,0,0,1-6-1c-3.16-1.58,1.25,4.48,6.31,4.24A7.3,7.3,0,0,1,275.67,274.37Z"/><path class="cls-3" d="M275.74,259.62a5.33,5.33,0,0,1,2.47.46C279.29,260.65,276.82,257.56,275.74,259.62Z"/><path class="cls-3" d="M270.66,260.75a5.18,5.18,0,0,0-1.85,1.18C268.3,262.6,268.55,259,270.66,260.75Z"/><path class="cls-5" d="M265.29,265.87s-1.66-1.8-3.39-1.45-.41,5.53,3.18,4.49S265.29,265.87,265.29,265.87Z"/><path class="cls-4" d="M264.05,266.59a1.81,1.81,0,0,0-1.78-1.16"/><path class="cls-8" d="M247.29,272.81s-3.15-7.72,5.29-12.87"/><path class="cls-7" d="M263.64,264.43s3.5-1.81,3.5-7.91S258.19,257.19,263.64,264.43Z"/><path class="cls-5" d="M316.13,276.06c-.22-1-.66-.71-.66-.71l-1.84-1-3-1.48-1,.12.77,4s.22,3.08,1.63,2c.21-.16.21-.48.24-.65.12.3.59,1.72,1.48.94,0,0,.13,2,1.75,1C316.36,279.78,316.38,277.25,316.13,276.06Z"/><path class="cls-2" d="M306.27,281.17a6.33,6.33,0,0,0,.67-4.07c-.36-2.49,1.37-4.11,2.18-3.71s3.3,6.87.15,11.29"/><path class="cls-2" d="M316.17,279.8s-1.35,2.46-2.11-.67"/><path class="cls-2" d="M307.39,270c2.69.33,6.52-1,7.06.4s-1.57,3.13-4.43,2.26"/><path class="cls-4" d="M311.28,275.07s0,2.88.73,3.93c0,0,.67,1.4,1.88.08s.29-4.86.29-4.86"/><path class="cls-4" d="M264.6,269.17a40.86,40.86,0,0,1,.6,11.62"/><path class="cls-4" d="M275.94,277.62s.52,2.39,1.35,3.05"/><path class="cls-4" d="M298.72,298.89a36.41,36.41,0,0,0-2.74,8.74"/><path class="cls-1" d="M251.79,281.77s9.68,8.72,23.46,7.39C287.63,288,288.93,283,288.93,283l-3-1.72s-4.69,4.74-15.07,4.12-13.29-4.81-13.29-4.81A36.25,36.25,0,0,0,251.79,281.77Z"/><path class="cls-2" d="M305,326.74a3.23,3.23,0,1,0-3.18,2.68A3,3,0,0,0,305,326.74Z"/><path class="cls-3" d="M338,329.19h0a1.69,1.69,0,0,0-1.61-1.52l-37.89-.33v.12l-36-.31a1.69,1.69,0,0,0-1.64,1.59l0,.46a1.72,1.72,0,0,0,1.63,1.94l74,.06A1.74,1.74,0,0,0,338,329.19Z"/><rect class="cls-7" x="271.71" y="350.39" width="70.03" height="35.08"/><path class="cls-7" d="M265.18,349.39s48.7-8.34,58.4-6.42c37.55,7.41-19.18,31.12-19.18,31.12Z"/><path class="cls-6" d="M283.06,368s20.48-11.15,38.11-6.48"/><path class="cls-3" d="M267.07,345.62H232.38l-4.36,50,61.33,1.87V367.91A22.28,22.28,0,0,0,267.07,345.62Z"/><polygon class="cls-3" points="241.46 453.28 237.26 453.28 237.26 403.56 247.75 403.56 241.46 453.28"/><line class="cls-6" x1="289.3" y1="385.09" x2="289.3" y2="409.46"/><line class="cls-6" x1="253.09" y1="345.7" x2="238.43" y2="345.7"/><path class="cls-1" d="M427.59,234.26s-24.18,53.45,2.87,79.22C430.46,313.48,451.77,256.85,427.59,234.26Z"/><path class="cls-1" d="M436.74,304.07s5.55-26.83,22.16-40.45c13-10.63,25.83-3.88,25.83-3.88s-12.07,4.4-16,12.56C464.69,280.7,466,306.35,436.74,304.07Z"/><path class="cls-6" d="M429.33,302.51s-4.46-30.21-.4-56"/><path class="cls-6" d="M448.85,292.74s-6.32-11.13,4.57-14.7c13.81-4.53,12.14-18.56,28.64-19.48"/><rect class="cls-1" x="422.76" y="399.4" width="36.39" height="42.26" rx="3.49"/><path class="cls-1" d="M136.86,271.61s1.25,12.6-1.43,22.8c-4.65,17.65-13.8,37.24-9.07,37.55,15.19,1,37.24-28.63,38.22-30.1s-24.47,12.43-24.47,12.43S147.17,269.16,136.86,271.61Z"/><rect class="cls-1" x="64.05" y="394.75" width="43.44" height="31.53"/><path class="cls-1" d="M18.41,253.43c-1.31,1.33,32-7.33,52.29,8.35,0,0,1.54-19.67,25.24-30.19,0,0-15.13-9.14-27.95,8.22,0,0-12.9-15.7-35.1-8.79,0,0,8.78,1.73,21.16,11C54.05,242.06,30.92,240.79,18.41,253.43Z"/><path class="cls-2" d="M62.69,256.64s4.78-4.26,10.07-3.07,7.51,42.85,3.24,52.07S65.76,305,65.76,305,74.64,272.52,62.69,256.64Z"/><path class="cls-2" d="M66.56,263.17l2,.68a3.73,3.73,0,0,0,4.09-1.18l3-3.71"/><path class="cls-2" d="M68.83,272.47,72,273.7a4.69,4.69,0,0,0,5.13-1.2l.33-.36"/><path class="cls-2" d="M394.83,156.25a6.77,6.77,0,1,0,6.77-6.77A6.77,6.77,0,0,0,394.83,156.25Z"/><line class="cls-2" x1="401.91" y1="149.57" x2="401.91" y2="0.25"/><rect class="cls-2" x="395.55" y="123.93" width="12.5" height="20.93" rx="3.11"/><path class="cls-3" d="M423,156.27H379.31c1.44-6.86,10.68-15.93,21.86-15.93S421.61,149.41,423,156.27Z"/><path class="cls-2" d="M93,156.25a6.77,6.77,0,1,0,6.76-6.77A6.76,6.76,0,0,0,93,156.25Z"/><line class="cls-2" x1="100.06" y1="149.57" x2="100.06" y2="0.25"/><rect class="cls-2" x="93.69" y="123.93" width="12.5" height="20.93" rx="3.11"/><path class="cls-3" d="M121.19,156.27H77.46c1.43-6.86,10.67-15.93,21.86-15.93S119.75,149.41,121.19,156.27Z"/><path class="cls-2" d="M189.7,390.24s-6.42-5.55-3.6-7.27c3.38-2,3.85,5,3.91,6.61a.09.09,0,0,0,.18,0l5.11-9.07"/><path class="cls-3" d="M95,266.27a30.06,30.06,0,0,0-1.65-12.72c-2.45-7.35,6.13-9.5,8-8.88,0,0,1.84-3.68,7.66-3.07s11.8,10,17.78,8.73a8.9,8.9,0,0,1-8.71,6C111.24,256.15,95,266.27,95,266.27Z"/><path class="cls-2" d="M153.35,331.94s8.87,1.65,14.21-2.27a6.36,6.36,0,0,1,8.41.49c.16.18.32.36.48.56a1.8,1.8,0,0,0,1.43.66h0a1.81,1.81,0,0,0,1.52-2.74,18.79,18.79,0,0,0-10.33-8.6c-8.06-2.69-16.66.68-16.66.68S154.6,326.92,153.35,331.94Z"/><path class="cls-2" d="M165.91,363.13A28,28,0,0,0,138,335.71c-.53,0-1.07,0-1.59.05H111.24v15.9h1.47a28,28,0,0,0,25.25,40l.63,0v4.55H166v-33Z"/><path class="cls-2" d="M97.51,279.69H45.77a16.85,16.85,0,0,0-16.86,16.85v86.62a20.75,20.75,0,0,0,20.76,20.76h68.62s-4.35-73.13-3.92-107.18A16.85,16.85,0,0,0,97.51,279.69Z"/><path class="cls-2" d="M117.68,252.54c-3.52-3.39-11.23-3.65-15.76.8-2.8,2.75-5,7.82-4.36,11.7l-7.62,11.33s9.12,5.24,16.54,4.36a9.72,9.72,0,0,1,1.31-5.92,3.74,3.74,0,0,0,2.9.23c3.7-1.41,5.2-5.85,5.2-5.85s1.67,1,2.14.53-.39-3.39.65-5.37S121.2,255.93,117.68,252.54Z"/><path class="cls-3" d="M97.35,267.41A1.39,1.39,0,0,1,95,266.27a17.52,17.52,0,0,0-.07-4.18c-.8-6.79,4.38-18.18,16.17-16.84,10.26,1.17,11,8.6,8.76,11a1.36,1.36,0,0,1-1.82.14c-1.71-1.3-6.54-4.43-12.57-3.84a1.35,1.35,0,0,0-1.16,1C103.6,256,101.38,263.15,97.35,267.41Z"/><path class="cls-3" d="M96.68,267.83a14,14,0,0,0,8.18-6l2,.65s3-.93,3.71-7.25c0,0,8.87,4.23,12.83-.28s-7.6-7.17-13.81-7.27S95.63,262.34,96.68,267.83Z"/><path class="cls-5" d="M107.36,263.05s.88-3.71-2.11-3.84-3.43,5.88-1.2,6.28S107.36,263.05,107.36,263.05Z"/><path class="cls-2" d="M106.23,263.25s.85-2.27-1.55-2.36"/><path class="cls-3" d="M114.91,264.9c-.06.53.11,1,.38,1s.51-.38.57-.9-.12-1-.38-1S115,264.38,114.91,264.9Z"/><path class="cls-3" d="M114.39,262.87a5.29,5.29,0,0,1,1.9.09c1,.24,1-1.06-.4-1S113.89,262.85,114.39,262.87Z"/><path class="cls-3" d="M108.11,274.61s-4.12-2.31-4.51-1.76,2.24,5.84,3.07,5.19C106.75,278,106.94,275.62,108.11,274.61Z"/><path class="cls-2" d="M112.73,271.55a1.47,1.47,0,0,0,1,1.15"/><rect class="cls-3" x="74.43" y="403.21" width="7.55" height="38.69"/><path class="cls-3" d="M51.33,447.87a4.15,4.15,0,1,0,4.14-4.14A4.15,4.15,0,0,0,51.33,447.87Z"/><path class="cls-3" d="M96.14,447.87a4.15,4.15,0,1,0,4.15-4.14A4.15,4.15,0,0,0,96.14,447.87Z"/><line class="cls-4" x1="54.73" y1="447.87" x2="99.54" y2="447.87"/><path class="cls-4" d="M68.28,447.74v-2a3.66,3.66,0,0,1,3.65-3.68h12.8a3.66,3.66,0,0,1,3.65,3.68v2.06"/><path class="cls-3" d="M154.07,331.29s-25.19.79-30-.41-20.3-12.23-20.3-12.23L101,368.28l-45.76-1.73s.26-14.17,1.7-31.2l.15.19s.07-.74.25-2.06c1.15-8.6,6.67-41.7,24.88-54.25a21.51,21.51,0,0,1,27.8,3.3l26.53,28.3,15.66,7.43C161.78,321.87,154.07,331.29,154.07,331.29Z"/><path class="cls-5" d="M39.72,368.28H101A17.7,17.7,0,0,1,118.65,386h0a17.69,17.69,0,0,1-17.7,17.7H52.63S39.42,368.28,39.72,368.28Z"/><path class="cls-7" d="M172.39,451.51l-50-.8-2.26-10.4-1.08-5c-.27-1.25-.6-2.48-1-3.7-4.31-14.34-7.13-35.25-4.31-46.19,0,0-8.1,3.06-15.81,3.06-13.45,0-33.24-2.32-40.57-15.07-7.19-12.52-.69-29.27-.69-29.27s56.66-8.67,73-3.14c22.38,7.6,30.45,35,45.42,45.5a19.56,19.56,0,0,0-3.21,13.88c.87,7.25-4.83,13.32-8.58,16.48-4.61-3.93-11.19-10.36-15.78-18.27,0,0-2.12,18,2.15,30.51,1.32,3.87,3.25,7.22,6,9.35C163.82,444.57,171.32,444.57,172.39,451.51Z"/><path class="cls-4" d="M148,398.13s7.76-35.5-11.13-35.82c-20.55-.34-22.58,15.77-42.78,15.81"/><path class="cls-3" d="M102.52,339.31s-5.47,14-31.63,17-3.06-26.83-3.06-26.83Z"/><line class="cls-4" x1="57.04" y1="335.54" x2="43.47" y2="335.54"/><path class="cls-5" d="M93.44,363.13a28,28,0,0,0-27.95-27.42c-.54,0-1.07,0-1.59.05H38.77v15.9h1.47a28,28,0,0,0,25.25,40l.63,0v4.55H93.55v-33Z"/><path class="cls-4" d="M113.57,385.67a35.86,35.86,0,0,1,5.52-4.72"/><path class="cls-3" d="M194.53,330.85,206,300.38a1.7,1.7,0,0,0-1-2.21l-.74-.28a1.73,1.73,0,0,0-2.22,1l-10.41,27.74a1.72,1.72,0,0,1-1.61,1.12H159.24a1.72,1.72,0,0,0-1.72,1.71h0a1.72,1.72,0,0,0,1.72,1.72h35.29Z"/><path class="cls-2" d="M168.73,323.38a17.57,17.57,0,0,1,7.56,5.36"/><path class="cls-2" d="M167,324.78a17.16,17.16,0,0,1,5.36,3.61"/><line class="cls-2" x1="93.37" y1="388" x2="93.37" y2="404.2"/><path class="cls-2" d="M207.67,393.14l-38.9,28s-4.92-3.81-8.11-6.52c3.75-3.16,12.13-6.94,11.26-14.19a19.56,19.56,0,0,1,3.21-13.88,22.65,22.65,0,0,0,7.29,3.47,18.16,18.16,0,0,0,7.38.24C193.38,389.66,201.47,389,207.67,393.14Z"/><path class="cls-2" d="M172.39,451.51l-50-.8-2.26-10.4c4.46.45,14.18,1,19.54-2s5.91-7.35,10-9.23c1.32,3.87,3.25,7.22,6,9.35C163.82,444.57,171.32,444.57,172.39,451.51Z"/><path class="cls-6" d="M103.77,318.65s-5.13-5.2-8.47-5.73"/><path class="cls-2" d="M163.85,436.62c-.27,0-6.56,2.83-6.56,2.83l3-7.25"/><path class="cls-6" d="M113.56,324.28s15-9,19.39,7.36"/><polygon class="cls-3" points="207.97 393.01 168.71 421.33 172.53 424.18 211.21 395.35 207.97 393.01"/><polygon class="cls-3" points="122.14 450.53 122.85 454.02 172.88 454.84 172.64 451.45 122.14 450.53"/><path class="cls-1" d="M379.51,339.91H110.58a4.36,4.36,0,0,1-4.36-4.36h0a4.36,4.36,0,0,1,4.36-4.36H379.51a4.36,4.36,0,0,1,4.36,4.36h0A4.36,4.36,0,0,1,379.51,339.91Z"/><rect class="cls-1" x="137.05" y="337.45" width="4.15" height="124.67"/><path class="cls-2" d="M354.1,315.13a24.72,24.72,0,0,0-5.75-3.11c-4.6-2.78-7.34-1.57-10.08-.78s-4.8-.51-5.14.11c-.22.4,2.2,2.72,6.1,1.9-2.65,1-9,2.56-11.38,2.22-4.84-.7-2.09.87,3.55,1.91a.15.15,0,0,1,0,.29,16,16,0,0,1-5.24.19c-4.29-.61-5.32,1.29,3.11,2,.26,0,1.63.1,1.41.24-1,.63-3.23.46-5.62.1-2.61-.41,1.24,2.13,6.42,2.39-.06.35-3,.6-4.17.35-2.91-.61-.94,2,5.6.8a65,65,0,0,1,10.71-1,31.77,31.77,0,0,1,6.57,2.34S354.17,319.81,354.1,315.13Z"/><path class="cls-3" d="M457.71,357.27c6-20.93,16-41.12,20.42-56.34a16.22,16.22,0,0,0-14.82-20.62h0c-7.44-.38-13.95,3.36-17.53,11.54l-18.45,39a19.57,19.57,0,0,1-17.49,10.8H365.48a24.64,24.64,0,0,0-24,30.07h0a62.2,62.2,0,0,0,61.26,48.51h0a48.82,48.82,0,0,0,46-33.88C452,376.26,455.31,365.62,457.71,357.27Z"/><path class="cls-3" d="M463.5,280.29,447.13,280,384.59,420.58l18.12-.3s32.27-8.56,48.41-72.43S463.5,280.29,463.5,280.29Z"/><path class="cls-7" d="M403.3,298.26l-4.91-20.54a42.27,42.27,0,0,0-17.25,11.4c-9,9.67-11.72,14.94-12.63,17.45-.53,1.48-.39,7.92-.8,10.73-1,7-3.64,13.06-3.64,16.57,0,21.26,6.87,34.57,6.87,34.57l45.74-20.88Z"/><rect class="cls-3" x="393.69" y="406.87" width="7.55" height="38.69"/><path class="cls-2" d="M359.12,434.81c.45,1.14.88,2.28,1.32,3.48l-20.22,12.76a29,29,0,0,1-15.68,4.48l-16.22-.11a12.35,12.35,0,0,1,1.26-3.7,25.65,25.65,0,0,1,7.77-9c5.78-4.39,6-15.84,7-21.76a30.57,30.57,0,0,1,2.44-7.89c-1.21-15.09-3.25-37.26-5.37-46.87-1.93-8.73-5.08-13.23-.88-21.12.21-.39.42-.77.64-1.14,7.2-12.34,23.37-16,35.55-8.57l35.2,15.26,3.75,43.95L330,353.08c6,19.58,13.46,30.27,23.86,66.1C356,426.8,357.61,430.89,359.12,434.81Z"/><path class="cls-2" d="M376.41,351.92,364.8,394.48l-31.28-12.93c-1.07,20.46-8,37.21-12.53,46.31-.9,2.37-2.79,6.52-4.41,11.63a58.7,58.7,0,0,0-2.53,11.95c-.13,1.31-.2,2.63-.2,4H258.4a13.38,13.38,0,0,1,2.09-4,18.85,18.85,0,0,1,9.92-6.72,21.9,21.9,0,0,0,8.95-5.46,32.4,32.4,0,0,0,5.49-7.34,45.41,45.41,0,0,0,4-9.84c0-.06,0-.11.05-.16.31-1.13.45-1.81.45-1.81l.05,0c4.06-14.59,9.78-36.1,11.1-45.86,1.19-8.86,4.06-17.41,10.72-23.37a32.25,32.25,0,0,1,28.8-7.41Z"/><path class="cls-3" d="M374.42,250.07a12.18,12.18,0,0,1,.83-1,13.28,13.28,0,0,1,6.66-3.79c8.73-2,19.32,5.9,18,12.87a30,30,0,0,1-4.49,11.25Z"/><path class="cls-4" d="M372,262.57s-5.47,1.47-6.31-3.48,4.67-10.14,10.38-10"/><path class="cls-7" d="M351.67,311.41a1.83,1.83,0,0,0-2.26,1.51c-.53,2.85-2,8-6.19,10.84-6,4.11,29.23,26.44,34,20.88,3.76-4.35-4.59-28.27-5.62-32.56-.25-1,2.48,7.52,1.45,7.79C370.12,320.64,357.56,313.28,351.67,311.41Z"/><path class="cls-3" d="M375.25,249s-8.9,2.63-8.08,12.07c0,0,.76,4.62,4.61,2.79s2.24,2,6.28,3.57,15.5-1.87,12-10.3S375.25,249,375.25,249Z"/><path class="cls-3" d="M375.14,262.93s-1.91,9.54,10.44,12.13,19.43-9.66,13.93-19.2S375.14,262.93,375.14,262.93Z"/><path class="cls-4" d="M393.53,268.1s10.17-2.1,9.53,7.81-13.46,8.39-15.5,4.58"/><path class="cls-2" d="M324.73,361.13s.5-8.39.67-12.08,10.9-12.37,10.9-12.37,3.19,1.44,5.12,6.07"/><path class="cls-7" d="M335.29,337s3-6.88,28-9.73,33.89,1.18,33.89,1.18l-3.91,13.21-53.63,5.91Z"/><path class="cls-2" d="M441.15,357.27c6-20.93,16-41.12,20.42-56.34a16.22,16.22,0,0,0-14.82-20.62h0c-7.44-.38-13.95,3.36-17.53,11.54l-18.45,39a19.57,19.57,0,0,1-17.49,10.8H348.92a24.64,24.64,0,0,0-24,30.07h0a62.2,62.2,0,0,0,61.26,48.51h0a48.82,48.82,0,0,0,46-33.88C435.42,376.26,438.75,365.62,441.15,357.27Z"/><path class="cls-4" d="M347,330a98.36,98.36,0,0,1,32.53-4.39"/><path class="cls-4" d="M380.84,299.63s-.73,20.84-4.94,25.77"/><path class="cls-4" d="M400.58,340.39s2.92-6.4-1.1-26.87"/><path class="cls-3" d="M370.59,451.54a4.15,4.15,0,1,0,4.14-4.15A4.15,4.15,0,0,0,370.59,451.54Z"/><path class="cls-3" d="M415.4,451.54a4.15,4.15,0,1,0,4.14-4.15A4.15,4.15,0,0,0,415.4,451.54Z"/><line class="cls-4" x1="373.99" y1="451.54" x2="418.8" y2="451.54"/><path class="cls-4" d="M387.53,451.41v-2a3.67,3.67,0,0,1,3.66-3.69H404a3.67,3.67,0,0,1,3.65,3.69v2.05"/><path class="cls-3" d="M314.05,451.44c-.13,1.31-.2,2.63-.2,4H258.4a13.38,13.38,0,0,1,2.09-4Z"/><path class="cls-3" d="M360.44,438.29l-20.22,12.76a29,29,0,0,1-15.68,4.48l-16.22-.11a12.35,12.35,0,0,1,1.26-3.7c2.66-.18,4.47-.28,4.47-.28s10.91,1.4,18.47-1.27c5.7-2,19.93-11,26.6-15.36C359.57,436,360,437.09,360.44,438.29Z"/><path class="cls-2" d="M339.23,313.25s1.36,2.75,6.34,2.32"/><path class="cls-2" d="M328.34,347.7a5.81,5.81,0,0,0-1.4,2.95c-.31,1.86-.85,6-.85,6"/><path class="cls-3" d="M287.39,426.69s32.75,1.39,33.6,1.17c0,0,4.11-8.67,4.95-11.45l-35.18-1.48Z"/><path class="cls-3" d="M323.49,427.69s8.25,3.19,29.4-11.3l-1.59-6.52-4.49-3s-4.69-3-14.07-15.82c0,0-2.75,17-8.34,30C323.74,422.57,323.49,427.69,323.49,427.69Z"/><path class="cls-2" d="M369.87,264.21a33.83,33.83,0,0,1,3.51,9.7c1,5.33,5.34,8.56,11.66,5.89"/><path class="cls-2" d="M382.51,280.61s1.75,3.34,1.32,5.73"/><ellipse class="cls-3" cx="393.5" cy="277.3" rx="9.49" ry="8.76"/><path class="cls-3" d="M385.69,279.87s1.18,3.46-2,4l-.8-2.58s-.89-.86,3.1-1.54"/><path class="cls-3" d="M367.51,260s-1.05,8.55,10.55,7.44-5-9.44-6.72-9.11A13.63,13.63,0,0,0,367.51,260Z"/></g></g></svg>