<svg xmlns="http://www.w3.org/2000/svg" viewBox="0 0 148.48 131.17"><defs><style>.cls-1{fill:#e5e1f1;}.cls-2,.cls-7{fill:none;}.cls-2{stroke:#af8cff;}.cls-2,.cls-4,.cls-7{stroke-miterlimit:10;stroke-width:0.5px;}.cls-3{fill:#7149dc;}.cls-4,.cls-6{fill:#fff;}.cls-4,.cls-7{stroke:#252d3b;stroke-linecap:round;}.cls-5{fill:#252d3b;}</style></defs><g id="Layer_2" data-name="Layer 2"><g id="OBJECTS"><ellipse class="cls-1" cx="115.64" cy="72.54" rx="13.93" ry="12.26"/><ellipse class="cls-1" cx="43.07" cy="56.32" rx="33.09" ry="32.58"/><path class="cls-2" d="M48.11,23.23c3.4,6.55,3,10.61-3,15.8s.87,10.56,7,11.66"/><path class="cls-3" d="M68.25,58.36a18.89,18.89,0,0,1-21.63-12.8,9,9,0,0,1-.45-4.31c1.41-6.34,7.42-6.3,4.14-12.58-3.83-7.31-5.12-13.15.74-18.2,2.27-2,2.09-5,6.46-7.4,1-.56,2.05-.47,2.57-.91C67.31-3.93,74.8,4.51,76,7.39a3.19,3.19,0,0,0,2.76,2,13.43,13.43,0,0,1,6.4,1.55c3.06,1.66,5.71,5,6.22,7.68a4.08,4.08,0,0,0,2.07,2.82c1.74.94,13.91,7.93,12.15,18.46C104.15,48.65,103,52.92,103,52.92S80.94,55.93,68.25,58.36Z"/><path class="cls-4" d="M75.55,32.73s17.78-1.81,28.9,8.75,12.79,72,19.74,77.84,15.7,4.5,11.67,5.84c-.83.28-111,7.17-116.6-3.38-7.39-13.84,11.25-4.54,15.38-14.38,4.63-11.05,8.91-25.21,6.19-35.59-6-22.94,1.53-28.59,22.79-36.16"/><path class="cls-5" d="M106.26,129.64H40.85c.12-2.22,7.89-5.71,8-7.82,1-15.26-5.05-26.38-2.82-32.06l52.77,3.71a250.59,250.59,0,0,1,6.34,29.69C105.47,125.24,105.84,127.4,106.26,129.64Z"/><path class="cls-6" d="M58.59,13.48c-1,2.8-6.1,1.77-5.24,5.09a19.29,19.29,0,0,1,1.08,4.34c1.1,7.19,7.25,9.91,12.64,5.52s5.78-6.07,2.31-13.67c-1.28-2.79-2.75-3.17-3.91-2.85A3.79,3.79,0,0,1,62,11.26C61,10.47,59.73,10.36,58.59,13.48Z"/><path class="cls-5" d="M56.92,24.41c.22.51.6.84.85.73s.29-.61.07-1.12-.6-.84-.85-.74S56.7,23.89,56.92,24.41Z"/><path class="cls-5" d="M63.76,22.61c.08.54.38,1,.66,1s.44-.47.36-1-.39-1-.67-.95S63.67,22.07,63.76,22.61Z"/><path class="cls-6" d="M62.53,30.54a8.89,8.89,0,0,1,1.1,6.29s7.49,4.51,11.92-4.1c0,0-3.59-8-4.32-12.59C71.23,20.14,63,29.7,62.53,30.54Z"/><path class="cls-5" d="M62.53,30.54A11,11,0,0,0,68.14,27c2.49-2.9.64,5-4.52,6.88A8,8,0,0,0,62.53,30.54Z"/><path class="cls-5" d="M56.05,18.59a5.68,5.68,0,0,0-2.27,1.5C53,21.11,54.11,17,56.05,18.59Z"/><path class="cls-5" d="M62.41,16.48a31.12,31.12,0,0,1,3.52.19C66.83,16.83,63.78,13.86,62.41,16.48Z"/><path class="cls-6" d="M69.31,17.7s.9-2.49,2.77-2.87,2.74,5.35-1.28,5.82S69.31,17.7,69.31,17.7Z"/><path class="cls-5" d="M71,20.85a1.63,1.63,0,1,0,.87-2.13A1.63,1.63,0,0,0,71,20.85Z"/><path class="cls-7" d="M70.86,17.9A2,2,0,0,1,72.14,16"/><circle class="cls-7" cx="57.12" cy="22.85" r="3.43"/><path class="cls-7" d="M61.28,20.87a3.43,3.43,0,1,0,3.43-3.43A3.44,3.44,0,0,0,61.28,20.87Z"/><path class="cls-4" d="M118.57,121.45a14.56,14.56,0,0,0,6.3,3.2"/><path class="cls-4" d="M104.5,117.3s2.26,5.9,7.37,7.47"/><path class="cls-7" d="M79.39,32.93a15.44,15.44,0,0,1-11.22,10c-8.69,2.14-7.41-6.19-7.41-6.19"/><path class="cls-4" d="M64.78,25.65a1.81,1.81,0,0,1-1.52,1.84"/><path class="cls-4" d="M67.63,18.94s2.06-4.29,4.87-4.26"/><line class="cls-4" x1="60.38" y1="21.43" x2="61.31" y2="21.14"/><path class="cls-2" d="M59.83,9.93s3.34,5.66,9.46,1.58"/><path class="cls-2" d="M53.78,6.8s0,2.41-6.54,5.34-5.67,12-1.72,12.38"/><path class="cls-5" d="M101.48,110.16H122a1.16,1.16,0,0,0,1.13-1.42l-.77-3.33a1.16,1.16,0,0,0-1.13-.9H101.48Z"/><path class="cls-4" d="M96.14,61.46s-3,11.09,2.69,32"/><path class="cls-4" d="M89.43,102.42H12.81a3.08,3.08,0,0,1-3-2.52L1.87,57.76a3.08,3.08,0,0,1,3-3.65H81.53a3.08,3.08,0,0,1,3,2.51l7.9,42.15A3.08,3.08,0,0,1,89.43,102.42Z"/><path class="cls-3" d="M62.11,124.26h-15l-7.36-39A2.28,2.28,0,0,1,42,82.52H52.34a2.27,2.27,0,0,1,2.24,1.86Z"/><path class="cls-4" d="M18.13,125.66A11.37,11.37,0,0,1,29,116c9.87-.81,10.52,8.42,10.52,8.42"/><path class="cls-1" d="M148.48,127.76a3.4,3.4,0,0,1-3.41,3.41H3.41a3.41,3.41,0,0,1,0-6.82H145.07a3.4,3.4,0,0,1,3.41,3.41Z"/><path class="cls-4" d="M70.42,124.09H37.51a1.93,1.93,0,0,1-1.93-1.93h0a1.92,1.92,0,0,1,1.93-1.93H70.42a1.93,1.93,0,0,1,1.93,1.93h0A1.94,1.94,0,0,1,70.42,124.09Z"/><path class="cls-3" d="M110,107.08c0,3.08,1.91,5.58,4.27,5.58s4.27-2.5,4.27-5.58-1.91-5.58-4.27-5.58S110,104,110,107.08Z"/><path class="cls-5" d="M64.41,42.3c-1.6,1.83-1.76,4.31-.35,5.54s3.85.76,5.45-1.07,1.76-4.3.35-5.54S66,40.48,64.41,42.3Z"/></g></g></svg>