<svg xmlns="http://www.w3.org/2000/svg" viewBox="0 0 115.15 135.78"><defs><style>.cls-1{fill:#e5e1f1;}.cls-2,.cls-8{fill:#252d3b;}.cls-3,.cls-4{fill:#fff;}.cls-3,.cls-5{stroke:#252d3b;}.cls-3,.cls-5,.cls-7,.cls-8{stroke-linecap:round;stroke-miterlimit:10;stroke-width:0.5px;}.cls-5,.cls-7{fill:none;}.cls-6{fill:#7149dc;}.cls-7,.cls-8{stroke:#fff;}</style></defs><g id="Layer_2" data-name="Layer 2"><g id="OBJECTS"><path class="cls-1" d="M89.54,34c13.38,9.46-1.15,46-38.56,36-24.78-6.57-21.92,11.37-37-.73C-14.09,46.73,2.83,2.22,40.67.17,82.15-2.07,66.76,17.85,89.54,34Z"/><rect class="cls-2" x="100.58" y="69.11" width="2.36" height="66.58"/><path class="cls-3" d="M82.77,66s5,.93,8.07-1.29a3.61,3.61,0,0,1,4.78.28l.27.31a1,1,0,0,0,.81.38h0a1,1,0,0,0,.86-1.56,10.63,10.63,0,0,0-5.86-4.88c-4.58-1.53-9.46.38-9.46.38A13.14,13.14,0,0,1,82.77,66Z"/><path class="cls-3" d="M89.9,83.69A15.87,15.87,0,0,0,74,68.12c-.3,0-.61,0-.91,0H58.85v9h.84A15.72,15.72,0,0,0,58.15,84,15.88,15.88,0,0,0,74,99.88h.36v2.59H90V83.69Z"/><path class="cls-3" d="M62.86,106.87h-39a11.8,11.8,0,0,1-11.8-11.8V60.65A24.35,24.35,0,0,1,60.78,60C61.3,80.52,62.86,106.87,62.86,106.87Z"/><path class="cls-3" d="M62.51,20.88c-2-1.93-6.38-2.08-8.95.45A8.61,8.61,0,0,0,51.08,28l-4.33,6.43s5.19,3,9.4,2.48a5.48,5.48,0,0,1,.74-3.36,2.12,2.12,0,0,0,1.65.12,5.83,5.83,0,0,0,3-3.32s.95.57,1.22.3-.22-1.92.37-3.05S64.51,22.8,62.51,20.88Z"/><path class="cls-2" d="M51,29.32a.78.78,0,0,1-1.35-.64,10.17,10.17,0,0,0,0-2.38c-.45-3.85,2.49-10.33,9.19-9.56,5.83.66,6.22,4.88,5,6.23a.77.77,0,0,1-1,.08,10.59,10.59,0,0,0-7.14-2.19.77.77,0,0,0-.66.57C54.51,22.84,53.25,26.9,51,29.32Z"/><path class="cls-4" d="M56.65,26.85s.5-2.11-1.2-2.19-2,3.35-.68,3.57S56.65,26.85,56.65,26.85Z"/><path class="cls-3" d="M56,27s.48-1.29-.88-1.34"/><path class="cls-2" d="M60.94,27.9c0,.3.06.55.21.57s.3-.22.33-.52-.07-.55-.22-.56S61,27.6,60.94,27.9Z"/><path class="cls-2" d="M60.64,26.74a3,3,0,0,1,1.08.06c.59.13.59-.61-.23-.6S60.36,26.73,60.64,26.74Z"/><path class="cls-2" d="M57.08,33.41s-2.35-1.31-2.57-1,1.27,3.32,1.75,3A3.82,3.82,0,0,1,57.08,33.41Z"/><path class="cls-3" d="M59.7,31.67a.85.85,0,0,0,.57.66"/><rect class="cls-2" x="37.95" y="106.9" width="4.29" height="21.98"/><circle class="cls-2" cx="27.18" cy="132.27" r="2.35"/><circle class="cls-2" cx="52.63" cy="132.27" r="2.35"/><line class="cls-5" x1="26.76" y1="132.27" x2="52.21" y2="132.27"/><path class="cls-5" d="M34.45,131.75v-1.12a2.08,2.08,0,0,1,2.08-2.09h7.26c1.15,0,2.08,2.14,2.08,2.09v1.17"/><path class="cls-2" d="M83.18,65.61s-14.3.45-17-.23-11.53-6.95-11.53-6.95-6.56,1.54-6.09,7.1C49,71.34,49.6,87.31,49.6,87.31L27,85.64s.15-8,1-17.72a.39.39,0,0,0,.08.1s0-.42.14-1.17c.55-4.06,2.8-17.72,9.49-26.32A20.76,20.76,0,0,1,42.34,36a12.23,12.23,0,0,1,15.8,1.88l7.18,7.66L73.2,54l8.9,4.22C87.56,60.26,83.18,65.61,83.18,65.61Z"/><path class="cls-6" d="M93.59,133.89l-28.38-.46-1.29-5.9-.61-2.84c-.15-.71-.34-1.41-.55-2.1-2.45-8.14-4-20-2.45-26.24a29.51,29.51,0,0,1-9,1.74c-7.64,0-18.88-1.31-23-8.56s-.39-16.62-.39-16.62S60.08,68,69.34,71.13C82.06,75.44,86.64,91,95.14,97a11.07,11.07,0,0,0-1.82,7.88c.49,4.12-2.74,7.57-4.87,9.36a42.09,42.09,0,0,1-9-10.37s-1.2,10.22,1.22,17.33a11,11,0,0,0,3.44,5.31C88.72,130,93,130,93.59,133.89Z"/><path class="cls-5" d="M79.75,103.57s4.41-20.17-6.32-20.34c-11.67-.2-12.82,9-24.3,9"/><line class="cls-5" x1="28.07" y1="68.02" x2="20.36" y2="68.02"/><path class="cls-4" d="M48.74,83.69A15.87,15.87,0,0,0,32.87,68.12c-.31,0-.61,0-.91,0H17.69v9h.83a15.9,15.9,0,0,0,14.35,22.7h.36v2.59H48.81V83.69Z"/><path class="cls-5" d="M60.18,96.5a20.11,20.11,0,0,1,3.13-2.69"/><path class="cls-2" d="M106.16,65.36l6.49-17.31a1,1,0,0,0-.57-1.26l-.42-.15a1,1,0,0,0-1.25.57L104.49,63a1,1,0,0,1-.91.63H86.11a1,1,0,0,0-1,1h0a1,1,0,0,0,1,1h20Z"/><path class="cls-3" d="M91.5,61.11a10,10,0,0,1,4.3,3"/><path class="cls-3" d="M90.51,61.91a9.68,9.68,0,0,1,3,2.05"/><line class="cls-3" x1="48.7" y1="97.82" x2="48.7" y2="106.7"/><path class="cls-3" d="M113.62,100.74,91.53,116.62s-2.79-2.17-4.6-3.71c2.13-1.79,6.88-3.94,6.39-8.06A11.07,11.07,0,0,1,95.14,97a12.83,12.83,0,0,0,4.14,2,10.38,10.38,0,0,0,4.19.14C105.51,98.76,110.1,98.39,113.62,100.74Z"/><path class="cls-3" d="M93.59,133.89l-28.38-.46-1.29-5.9c2.54.25,8.06.56,11.1-1.12s3.36-4.18,5.68-5.24a11,11,0,0,0,3.44,5.31C88.72,130,93,130,93.59,133.89Z"/><path class="cls-7" d="M54.61,58.43s-2.91-3-4.81-3.26"/><path class="cls-7" d="M60.17,61.62s8.54-5.12,11,4.19"/><path class="cls-2" d="M113.84,100.58,91.33,116.8l1.37,1a1.35,1.35,0,0,0,1.6,0l20.5-15.21a.87.87,0,0,0,0-1.42Z"/><polygon class="cls-2" points="65.05 133.33 65.45 135.32 93.87 135.78 93.73 133.86 65.05 133.33"/><path class="cls-1" d="M110.73,70.5H58.48A2.48,2.48,0,0,1,56,68h0a2.48,2.48,0,0,1,2.48-2.48h52.25A2.47,2.47,0,0,1,113.2,68h0A2.47,2.47,0,0,1,110.73,70.5Z"/><path class="cls-2" d="M75.87,135.69H73.51V70.29a1.18,1.18,0,0,1,1.18-1.18h0a1.18,1.18,0,0,1,1.18,1.18Z"/><rect class="cls-1" x="100.58" y="78.37" width="2.36" height="57.23"/><rect class="cls-1" x="73.51" y="78.37" width="2.36" height="57.23"/><path class="cls-5" d="M63.73,23s-.73,2.67-4.35,1.65-4.11,4.55-6.57.62c-1.62-2.57-6.44,8.26-8.19,5.49"/><path class="cls-2" d="M63.58,19.36c-1.5-2.87-10-.07-10-.07a5.19,5.19,0,0,0-5.41,1,3.87,3.87,0,0,0-1.43,3.09,2.89,2.89,0,0,1-1.9,2.75,5.33,5.33,0,0,0-3.06,2.37c-1.17,2.48-1.63,7.67,4.58,8.82a4.24,4.24,0,0,0,4-1.31c3.48.13,5-4.14,4.32-6.6-.09-.36-.17-.69-.23-1-.37-1.65,2-.84,3.45-1.77s1.06-3.27,2.54-2.79C63.39,24.77,65.08,22.23,63.58,19.36Z"/><path class="cls-5" d="M102.16,99.1s-5.29-5.4-3.32-6.85c3.44-2.53,3.53,6.64,3.53,6.64l5.6-6.43"/><path class="cls-5" d="M85,126.87s-.86-5.71,1.53-5.88c2.66-.18-1.22,6.05-1.22,6.05l5.4-.49"/><path class="cls-6" d="M65.32,45.58c-.6,2.08-2.4,4.24-7,5.13-8.79,1.71-18.43-7.87-20.61-10.18A20.76,20.76,0,0,1,42.34,36a12.23,12.23,0,0,1,15.8,1.88Z"/><line class="cls-7" x1="56.22" y1="40.41" x2="65.95" y2="50.63"/><path class="cls-8" d="M28.66,102.11a11.82,11.82,0,0,1-1,4.76H23.89a11.8,11.8,0,0,1-11.8-11.8v-4a11.84,11.84,0,0,1,4.62-.93,10.05,10.05,0,0,1,1.56.11,11.93,11.93,0,0,1,10,9A11.5,11.5,0,0,1,28.66,102.11Z"/></g></g></svg>