<svg xmlns="http://www.w3.org/2000/svg" viewBox="0 0 109.55 141.34"><defs><style>.cls-1{fill:#e5e1f1;}.cls-2{fill:#252d3b;}.cls-3,.cls-4{fill:#fff;}.cls-3,.cls-5{stroke:#252d3b;}.cls-3,.cls-5,.cls-7{stroke-linecap:round;stroke-miterlimit:10;stroke-width:0.5px;}.cls-5,.cls-7{fill:none;}.cls-6{fill:#7149dc;}.cls-7{stroke:#fff;}</style></defs><g id="Layer_2" data-name="Layer 2"><g id="OBJECTS"><path class="cls-1" d="M19.25,45.64c27.73,13.12,5.57,39.84,43,29.92C87,69,84.15,86.93,99.23,74.82,127.3,52.28,93.23.49,55.33,0,8.21-.59,3.57,38.22,19.25,45.64Z"/><path class="cls-2" d="M49.29,30.32s-2.06.63-3-.87c-1.22-1.9,1.21-2.35,1.21-2.35a3.24,3.24,0,0,1,.2-4c1.67-1.81,4.82-.87,4.82-.87a5.1,5.1,0,0,1,3.75-3c2.68-.33,3.69,2.75,3.69,2.75s.93-1.47,1.74-.13A3.64,3.64,0,0,1,66,24.22a5.66,5.66,0,0,1-.87,5.36,1.48,1.48,0,0,1,1.34,1.81,2.28,2.28,0,0,1-2.14,1.67S66.3,35.61,63,36.75s-13.42-6.46-13.42-6.26"/><rect class="cls-2" x="10.27" y="74.66" width="2.36" height="57.8" transform="translate(22.9 207.12) rotate(180)"/><path class="cls-3" d="M30.43,71.53s-5,.94-8.07-1.29a3.61,3.61,0,0,0-4.77.28c-.1.1-.19.21-.28.32a1,1,0,0,1-.81.37h0a1,1,0,0,1-.86-1.55,10.68,10.68,0,0,1,5.86-4.89c4.58-1.52,9.46.39,9.46.39A13.11,13.11,0,0,0,30.43,71.53Z"/><path class="cls-3" d="M50.35,112.42h39a11.8,11.8,0,0,0,11.8-11.8V66.2a24.35,24.35,0,0,0-48.69-.63C51.91,86.07,50.35,112.42,50.35,112.42Z"/><path class="cls-3" d="M50.69,26.43c2-1.92,6.38-2.07,9,.46a8.58,8.58,0,0,1,2.47,6.64L66.45,40s-5.18,3-9.4,2.48a5.51,5.51,0,0,0-.74-3.37,2.08,2.08,0,0,1-1.65.13,5.86,5.86,0,0,1-2.95-3.32s-1,.57-1.21.3.22-1.92-.37-3S48.69,28.36,50.69,26.43Z"/><path class="cls-2" d="M62.24,34.88a.79.79,0,0,0,1.35-.65,10.09,10.09,0,0,1,0-2.37c.46-3.86-2.49-10.33-9.18-9.57-5.83.67-6.23,4.89-5,6.23a.78.78,0,0,0,1,.08,10.63,10.63,0,0,1,7.14-2.18.76.76,0,0,1,.65.57C58.69,28.4,60,32.46,62.24,34.88Z"/><path class="cls-4" d="M56.56,32.4s-.51-2.1,1.19-2.18,2,3.34.69,3.57S56.56,32.4,56.56,32.4Z"/><path class="cls-3" d="M57.19,32.52s-.48-1.29.89-1.34"/><path class="cls-2" d="M52.27,33.46c0,.29-.07.55-.22.56s-.29-.21-.32-.51.06-.55.21-.57S52.24,33.16,52.27,33.46Z"/><path class="cls-2" d="M52.56,32.3a3.17,3.17,0,0,0-1.08.05c-.59.14-.59-.6.23-.59S52.84,32.29,52.56,32.3Z"/><path class="cls-2" d="M56.13,39s2.34-1.32,2.56-1-1.27,3.32-1.74,3A4,4,0,0,0,56.13,39Z"/><path class="cls-3" d="M53.5,37.23a.83.83,0,0,1-.56.66"/><rect class="cls-2" x="70.97" y="112.46" width="4.29" height="21.98" transform="translate(146.23 246.9) rotate(180)"/><circle class="cls-2" cx="86.03" cy="137.83" r="2.35"/><circle class="cls-2" cx="60.57" cy="137.83" r="2.35"/><line class="cls-5" x1="86.45" y1="137.83" x2="61" y2="137.83"/><path class="cls-5" d="M78.75,137.31v-1.12a2.08,2.08,0,0,0-2.07-2.1H69.41c-1.15,0-2.08,2.14-2.08,2.1v1.17"/><path class="cls-2" d="M30,71.16s14.3.45,17-.23S58.6,64,58.6,64s3.57,11.69,3.1,17.25a28.82,28.82,0,0,0,1.91,11.63l22.58-1.67s-.15-8-1-17.72a.39.39,0,0,1-.08.1s0-.42-.14-1.17c-.55-4.06-2.8-17.72-9.49-26.32a20.76,20.76,0,0,0-4.64-4.49,12.23,12.23,0,0,0-15.8,1.88l-7.18,7.66L40,59.54l-8.9,4.22C25.65,65.81,30,71.16,30,71.16Z"/><path class="cls-6" d="M19.62,139.45,48,139l1.28-5.91.61-2.83c.16-.71.34-1.41.55-2.1,2.45-8.15,4.05-20,2.45-26.24a29.51,29.51,0,0,0,9,1.74c7.64,0,18.88-1.32,23-8.56s.4-16.62.4-16.62S43,70.47,33.7,73.61c-12.71,4.32-12.76,20-17.32,30.8,1,1.41,4,2.15,3.51,6-.5,4.12,2.74,7.57,4.87,9.36a42,42,0,0,0,9-10.38s-.41,9.71-1.22,17.33A8.06,8.06,0,0,1,29.06,132C24.49,135.5,20.23,135.5,19.62,139.45Z"/><path class="cls-5" d="M33.45,109.13s-.74-20.93,7.81-27.42c5.5-4.17,14.15-2.11,25.63-2.08"/><line class="cls-5" x1="85.14" y1="73.58" x2="92.84" y2="73.58"/><path class="cls-4" d="M64.46,89.25A15.89,15.89,0,0,1,80.34,73.67q.45,0,.9,0H95.51v9h-.83a15.89,15.89,0,0,1-14.34,22.71H80V108H64.4V89.25Z"/><path class="cls-5" d="M53,102.05a20.7,20.7,0,0,0-3.14-2.68"/><path class="cls-2" d="M7,70.91.55,53.61a1,1,0,0,1,.57-1.26l.42-.16a1,1,0,0,1,1.26.57L8.71,68.52a1,1,0,0,0,.92.64H27.09a1,1,0,0,1,1,1h0a1,1,0,0,1-1,1H7Z"/><path class="cls-3" d="M21.7,66.67a10.06,10.06,0,0,0-4.3,3"/><path class="cls-3" d="M22.69,67.46a9.8,9.8,0,0,0-3,2.05"/><line class="cls-3" x1="64.5" y1="103.38" x2="64.5" y2="112.26"/><path class="cls-3" d="M19.62,139.45,48,139l1.28-5.91c-2.53.26-8.05.57-11.1-1.12s-3.36-4.17-5.68-5.24A11,11,0,0,1,29.06,132C24.49,135.5,20.23,135.5,19.62,139.45Z"/><path class="cls-7" d="M58.59,64s2.92-2.95,4.82-3.25"/><polygon class="cls-2" points="48.16 138.89 47.76 140.88 19.34 141.34 19.48 139.41 48.16 138.89"/><path class="cls-1" d="M2.48,76.06H54.73a2.48,2.48,0,0,0,2.47-2.48h0a2.47,2.47,0,0,0-2.47-2.47H2.48A2.47,2.47,0,0,0,0,73.58H0A2.48,2.48,0,0,0,2.48,76.06Z"/><path class="cls-2" d="M37.34,74.66h2.36a0,0,0,0,1,0,0v56.7a1.1,1.1,0,0,1-1.1,1.1h-.16a1.1,1.1,0,0,1-1.1-1.1V74.66a0,0,0,0,1,0,0Z" transform="translate(77.03 207.12) rotate(180)"/><rect class="cls-1" x="10.27" y="83.93" width="2.36" height="57.23" transform="translate(22.9 225.08) rotate(180)"/><rect class="cls-1" x="37.34" y="83.93" width="2.36" height="57.23" transform="translate(77.03 225.08) rotate(180)"/><path class="cls-2" d="M49.3,27.83s.12,2.89,4.1,2.28c0,0,.42,1.59,1.87,1.36s1.06-2.16,3.38-1.36a1.69,1.69,0,0,1,.53,2.35,3.85,3.85,0,0,0,4,2.89c3.49,0-2.4-11-4.87-11.36S49.45,23.12,49.3,27.83Z"/><path class="cls-5" d="M48.47,23.59c-.09,0,.89-4.5,4.79-1.5"/><rect class="cls-2" x="10.27" y="120.56" width="29.48" height="2.12"/><path class="cls-3" d="M3.84,118.48,31.05,118s.94-3.4,1.48-5.72c-2.78-.17-7.88,1-9.94-2.65a11.07,11.07,0,0,0-6.17-5.23,12.83,12.83,0,0,1-2.15,4A10.06,10.06,0,0,1,11,111.09C9.17,112.05,5.27,114.5,3.84,118.48Z"/><path class="cls-2" d="M3.57,118.49l27.74-.43-.49,1.64a1.34,1.34,0,0,1-1.28,1L4,120.69a.87.87,0,0,1-.81-1.16Z"/><path class="cls-5" d="M11.83,110.73s1.43.08,3.2,2.28"/><path class="cls-5" d="M13.6,109.21s1.43.09,3.2,2.28"/><path class="cls-5" d="M27.6,133.33s1.43.08,3.2,2.27"/><path class="cls-5" d="M29.37,131.81s1.43.08,3.2,2.28"/><path class="cls-2" d="M85.87,94.81h0a3.74,3.74,0,0,1,3.74,3.74v13.78a0,0,0,0,1,0,0H82.14a0,0,0,0,1,0,0V98.54a3.74,3.74,0,0,1,3.74-3.74Z"/></g></g></svg>