<svg width="421" height="150" viewBox="0 0 421 150" fill="none" xmlns="http://www.w3.org/2000/svg">
<rect width="150" height="150" rx="15" fill="url(#paint0_linear_1_7)"/>
<path d="M56.375 35.625C59.2917 35.625 62.125 36.125 64.875 37.125C67.7083 38.125 70.4167 39.5833 73 41.5C73.4167 41.9167 73.875 42.3333 74.375 42.75C74.7917 42.3333 75.25 41.9167 75.75 41.5C78.3333 39.5833 81 38.125 83.75 37.125C86.5833 36.125 89.4167 35.625 92.25 35.625C95.1667 35.625 98 36.125 100.75 37.125C103.583 38.125 106.25 39.625 108.75 41.625C111.333 43.5417 113.583 46.125 115.5 49.375C117.5 52.625 118.5 56.5 118.5 61V106.125C118 111.125 115.25 113.833 110.25 114.25C107.917 114.25 105.875 113.5 104.125 112C102.458 110.417 101.625 108.458 101.625 106.125V62C101.625 60 101.25 58.3333 100.5 57C99.75 55.5833 98.9167 54.5 98 53.75C97.0833 52.9167 96.125 52.3333 95.125 52C94.125 51.5833 93.125 51.375 92.125 51.375C91.125 51.375 90.125 51.5833 89.125 52C88.2083 52.3333 87.2917 52.9167 86.375 53.75C85.4583 54.5 84.625 55.5833 83.875 57C83.125 58.3333 82.7083 60 82.625 62V106.125C82.125 111.125 79.375 113.833 74.375 114.25C72.0417 114.25 70 113.5 68.25 112C66.5833 110.417 65.75 108.458 65.75 106.125V62C65.75 60 65.375 58.3333 64.625 57C63.875 55.5833 63.0417 54.5 62.125 53.75C61.2083 52.9167 60.25 52.3333 59.25 52C58.25 51.5833 57.25 51.375 56.25 51.375C55.25 51.375 54.25 51.5833 53.25 52C52.3333 52.3333 51.4167 52.9167 50.5 53.75C49.5833 54.5 48.75 55.5833 48 57C47.25 58.3333 46.8333 60 46.75 62V106.125C46.3333 111.125 43.625 113.833 38.625 114.25C36.2917 114.25 34.25 113.5 32.5 112C30.8333 110.417 30 108.458 30 106.125V61C30.1667 56.5 31.2083 52.625 33.125 49.375C35.0417 46.125 37.2917 43.5417 39.875 41.625C42.4583 39.625 45.125 38.125 47.875 37.125C50.7083 36.125 53.5417 35.625 56.375 35.625Z" fill="white"/>
<path d="M189.24 118V39.775H196.59L225.99 82.405H221.895L251.19 39.775H258.54V118H250.14V51.115L252.87 52.165L224.1 93.85H223.68L195.015 52.165L197.64 51.115V118H189.24ZM302.213 119.26C296.893 119.26 292.063 118 287.723 115.48C283.383 112.89 279.918 109.39 277.328 104.98C274.808 100.5 273.548 95.425 273.548 89.755C273.548 84.155 274.808 79.15 277.328 74.74C279.848 70.33 283.243 66.865 287.513 64.345C291.853 61.755 296.753 60.46 302.213 60.46C307.673 60.46 312.538 61.72 316.808 64.24C321.148 66.76 324.543 70.225 326.993 74.635C329.513 79.045 330.773 84.085 330.773 89.755C330.773 95.495 329.478 100.605 326.888 105.085C324.298 109.495 320.833 112.96 316.493 115.48C312.223 118 307.463 119.26 302.213 119.26ZM302.213 111.385C305.993 111.385 309.388 110.44 312.398 108.55C315.478 106.66 317.893 104.07 319.643 100.78C321.463 97.49 322.373 93.815 322.373 89.755C322.373 85.695 321.463 82.055 319.643 78.835C317.893 75.615 315.478 73.06 312.398 71.17C309.388 69.28 305.993 68.335 302.213 68.335C298.433 68.335 295.003 69.28 291.923 71.17C288.913 73.06 286.498 75.615 284.678 78.835C282.858 82.055 281.948 85.695 281.948 89.755C281.948 93.815 282.858 97.49 284.678 100.78C286.498 104.07 288.913 106.66 291.923 108.55C295.003 110.44 298.433 111.385 302.213 111.385ZM334.162 141.1C333.672 141.1 333.007 141.065 332.167 140.995C331.257 140.925 330.522 140.82 329.962 140.68V133.435C331.432 133.645 332.902 133.75 334.372 133.75C337.242 133.75 339.657 132.875 341.617 131.125C343.647 129.375 344.662 126.75 344.662 123.25V61.72H352.537V123.25C352.537 127.1 351.697 130.355 350.017 133.015C348.337 135.675 346.097 137.67 343.297 139C340.567 140.4 337.522 141.1 334.162 141.1ZM344.662 51.325V39.775H352.537V51.325H344.662ZM384.931 119.26C381.361 119.26 378.176 118.595 375.376 117.265C372.576 115.865 370.371 113.975 368.761 111.595C367.151 109.215 366.346 106.485 366.346 103.405C366.346 100.465 366.976 97.805 368.236 95.425C369.496 92.975 371.456 90.91 374.116 89.23C376.776 87.55 380.171 86.36 384.301 85.66L406.351 81.985V89.125L386.191 92.485C382.131 93.185 379.191 94.48 377.371 96.37C375.621 98.26 374.746 100.5 374.746 103.09C374.746 105.61 375.726 107.745 377.686 109.495C379.716 111.245 382.306 112.12 385.456 112.12C389.306 112.12 392.666 111.315 395.536 109.705C398.406 108.025 400.646 105.785 402.256 102.985C403.866 100.185 404.671 97.07 404.671 93.64V79.36C404.671 76 403.446 73.27 400.996 71.17C398.546 69.07 395.361 68.02 391.441 68.02C388.011 68.02 385.001 68.895 382.411 70.645C379.821 72.325 377.896 74.53 376.636 77.26L369.496 73.375C370.546 70.995 372.191 68.825 374.431 66.865C376.741 64.905 379.366 63.365 382.306 62.245C385.246 61.055 388.291 60.46 391.441 60.46C395.571 60.46 399.211 61.265 402.361 62.875C405.581 64.485 408.066 66.725 409.816 69.595C411.636 72.395 412.546 75.65 412.546 79.36V118H404.671V106.765L405.826 107.92C404.846 110.02 403.306 111.945 401.206 113.695C399.176 115.375 396.761 116.74 393.961 117.79C391.231 118.77 388.221 119.26 384.931 119.26Z" fill="#1A1A1A"/>
<defs>
<linearGradient id="paint0_linear_1_7" x1="0" y1="0" x2="150" y2="150" gradientUnits="userSpaceOnUse">
<stop offset="0.376041" stop-color="#7E47E1"/>
<stop offset="1" stop-color="#7E47E1" stop-opacity="0.6"/>
</linearGradient>
</defs>
</svg>
